PathFileType	4	(X/Y/Z)	OpenSim_Sub04_CSBaseline_Magnet.trc
DataRate	CameraRate	NumFrames	NumMarkers	Units	OrigDataRate	OrigDataStartFrame	OrigNumFrames
100	100	23	8	m	100	4042	8083
Frame#	Time	torso_imu_offset_imu	pelvis_imu_offset_imu	tibia_r_imu_offset_imu	femur_r_imu_offset_imu	tibia_l_imu_offset_imu	femur_l_imu_offset_imu	toes_r_imu_offset_imu	toes_l_imu_offset_imu
				X1	Y1	Z1	X2	Y2	Z2	X3	Y3	Z3	X4	Y4	Z4	X5	Y5	Z5	X6	Y6	Z6	X7	Y7	Z7	X8		Y8	Z8	

4042	40.41000000	0.92963624	0.16685995	-0.14453814	-0.61126919	0.12311961	-0.68777853	-0.60180876	-0.53438912	-0.10218736	-0.74366624	-0.36182824	0.14138490	-0.15665547	0.77134453	0.24409860	-0.54324553	-0.06523072	0.25550359	-0.71900170	-0.11878048	-0.32282609	-0.75446909	-0.16387683	0.23294125
4043	40.42000000	0.92855175	0.16290855	-0.14620529	-0.61186039	0.12243837	-0.68879776	-0.59805071	-0.53778497	-0.09888010	-0.74152449	-0.37078357	0.14373515	-0.16360837	0.76556295	0.24561275	-0.54980836	-0.07926328	0.25164612	-0.71704247	-0.11419998	-0.32923162	-0.76004424	-0.16603680	0.21588308
4044	40.43000000	0.93472390	0.15655462	-0.14239766	-0.61329498	0.12508735	-0.69055151	-0.59137139	-0.54243273	-0.09702124	-0.73755079	-0.37332449	0.14264427	-0.17305912	0.76458356	0.23737639	-0.55031031	-0.08261956	0.24403079	-0.71477093	-0.11769999	-0.32261101	-0.75921120	-0.17245842	0.19513089
4045	40.44000000	0.93619079	0.15382900	-0.14170361	-0.61629821	0.12021836	-0.69280866	-0.59064500	-0.54419156	-0.10167213	-0.73296127	-0.38049845	0.13948801	-0.18109759	0.76237992	0.23760803	-0.55524881	-0.09042127	0.23739146	-0.72307714	-0.11594570	-0.32122917	-0.76817647	-0.17179628	0.18129118
4046	40.45000000	0.93625442	0.15064404	-0.13806182	-0.61071850	0.11462584	-0.69355641	-0.58525700	-0.55022209	-0.09985879	-0.73006930	-0.38758849	0.14460675	-0.19902662	0.76442112	0.24037771	-0.56038896	-0.09519755	0.22665900	-0.72125189	-0.12320309	-0.31760916	-0.76457547	-0.17303021	0.15945871
4047	40.46000000	0.93299972	0.14174279	-0.13323185	-0.60934316	0.11641261	-0.69039028	-0.58292503	-0.55283234	-0.10292294	-0.73029715	-0.39137279	0.13905710	-0.22383749	0.75926032	0.24182898	-0.56386902	-0.10546996	0.23666643	-0.71569788	-0.12101113	-0.31831448	-0.77315322	-0.18866191	0.12825939
4048	40.47000000	0.93117652	0.14073062	-0.12647342	-0.60954872	0.11203426	-0.69658598	-0.58794930	-0.55858081	-0.10600383	-0.72434179	-0.39951805	0.14196044	-0.24248633	0.75437507	0.23652126	-0.57046510	-0.11094902	0.23079127	-0.71956967	-0.12158811	-0.32097633	-0.77324730	-0.18887340	0.09991209
4049	40.48000000	0.93947447	0.13602784	-0.12494939	-0.60787795	0.10469606	-0.69657186	-0.57912492	-0.56097270	-0.10431582	-0.72336199	-0.40265085	0.14210607	-0.26141701	0.74678756	0.23053929	-0.57320449	-0.11842973	0.23074272	-0.71463392	-0.12381040	-0.31957985	-0.77599751	-0.19264970	0.07572151
4050	40.49000000	0.93940898	0.13043552	-0.12553660	-0.60145472	0.10407130	-0.70708330	-0.57517149	-0.56859177	-0.10289604	-0.71829661	-0.40560104	0.13503387	-0.28643145	0.73563546	0.22271891	-0.57525224	-0.12627731	0.22969580	-0.71500253	-0.12755592	-0.31539502	-0.77889109	-0.20263362	0.04405982
4051	40.50000000	0.93847517	0.13052828	-0.11994684	-0.60165564	0.10096871	-0.70778363	-0.57147308	-0.57190739	-0.10787910	-0.71280227	-0.41399987	0.13387243	-0.31810696	0.72569372	0.21763214	-0.57507702	-0.12800274	0.23081110	-0.71553287	-0.13038665	-0.31411296	-0.78051791	-0.20116662	0.00699677
4052	40.51000000	0.94028175	0.12499835	-0.11398409	-0.60487953	0.09612416	-0.70373067	-0.56865778	-0.57363574	-0.10318697	-0.71232123	-0.41804470	0.13707587	-0.33900998	0.70721052	0.21885620	-0.57905843	-0.13844063	0.23212861	-0.71730628	-0.12976238	-0.31849365	-0.78377788	-0.20573410	-0.01885541
4053	40.52000000	0.94658545	0.12084453	-0.11569261	-0.59918503	0.09585917	-0.70740733	-0.56670548	-0.57610257	-0.11136919	-0.71006195	-0.42853568	0.13318679	-0.36530516	0.70379992	0.21414159	-0.57698235	-0.14031733	0.22800045	-0.71696315	-0.13702432	-0.31680177	-0.77674304	-0.21305339	-0.05007659
4054	40.53000000	0.94877307	0.11226979	-0.11191749	-0.59792458	0.09256559	-0.71085752	-0.56312876	-0.57564049	-0.10426074	-0.70889443	-0.42730919	0.13430482	-0.39940352	0.68717274	0.20604678	-0.58411478	-0.14327390	0.22507684	-0.72107658	-0.14002745	-0.31891189	-0.78245997	-0.21538627	-0.08855846
4055	40.54000000	0.94246667	0.11322234	-0.11115561	-0.59586003	0.08814277	-0.70828999	-0.55656553	-0.58272690	-0.11162212	-0.69879133	-0.43720585	0.13577777	-0.42211038	0.67051593	0.20279524	-0.58822590	-0.14853594	0.22677008	-0.71827480	-0.13058136	-0.31173746	-0.77411781	-0.22019303	-0.12191266
4056	40.55000000	0.94115201	0.10801569	-0.10967471	-0.59772380	0.08525697	-0.71201157	-0.55327021	-0.59144335	-0.11497411	-0.69626300	-0.44443980	0.13359615	-0.45333629	0.65188617	0.19256670	-0.58467914	-0.14861413	0.22900965	-0.71849756	-0.14039293	-0.31213372	-0.76697386	-0.23264175	-0.14708990
4057	40.56000000	0.94358762	0.10711858	-0.10320175	-0.59466894	0.08696113	-0.71312439	-0.55223775	-0.59851919	-0.10905611	-0.69844576	-0.44141410	0.13338343	-0.48147246	0.63286418	0.19538346	-0.58025719	-0.15265320	0.23150694	-0.72240741	-0.14462876	-0.30921398	-0.76250946	-0.24103331	-0.17493148
4058	40.57000000	0.94383817	0.10303946	-0.09995369	-0.58998095	0.08758441	-0.71279974	-0.54139348	-0.59774004	-0.11611915	-0.70093551	-0.45128256	0.13169378	-0.50704875	0.61860694	0.18523462	-0.59056647	-0.15115754	0.23146077	-0.72611976	-0.14843983	-0.30611389	-0.74277182	-0.24315932	-0.20539438
4059	40.58000000	0.94413013	0.10662018	-0.09990391	-0.58852080	0.08597079	-0.71302263	-0.54596792	-0.59780768	-0.12234641	-0.69586122	-0.44710630	0.13113243	-0.53698746	0.59032173	0.18190632	-0.59082074	-0.15499958	0.23606863	-0.71655439	-0.14695413	-0.30660553	-0.73195140	-0.26396229	-0.22740560
4060	40.59000000	0.94172938	0.10179355	-0.09944680	-0.59317616	0.08138133	-0.71233030	-0.53970169	-0.60781791	-0.12091263	-0.69236228	-0.45154733	0.12983146	-0.56656564	0.56046288	0.18310761	-0.58828426	-0.15222845	0.23361849	-0.71764775	-0.14995292	-0.30214188	-0.71293020	-0.26893603	-0.26013685
4061	40.60000000	0.94689994	0.10050542	-0.10038036	-0.58802502	0.08417280	-0.71644973	-0.53608010	-0.61185532	-0.11540770	-0.69265527	-0.46406125	0.12564851	-0.58844687	0.53430202	0.17439546	-0.58561029	-0.14915369	0.24370170	-0.72136968	-0.15257902	-0.30398717	-0.70360592	-0.27801375	-0.28297696
4062	40.61000000	0.95044805	0.09762675	-0.09206282	-0.58824132	0.08929261	-0.71885103	-0.52941181	-0.61170422	-0.12028695	-0.68703383	-0.46106645	0.12453680	-0.61541772	0.50571565	0.16968228	-0.58831897	-0.14736676	0.24224771	-0.71911971	-0.15640998	-0.29868071	-0.69130146	-0.28073807	-0.30438197
4063	40.62000000	0.94914746	0.09254987	-0.09021658	-0.59203146	0.08802293	-0.71070436	-0.52024902	-0.61228336	-0.12762816	-0.68364949	-0.46502223	0.12531421	-0.64173120	0.47956025	0.16863539	-0.58023204	-0.14438916	0.23945878	-0.71984157	-0.15699965	-0.29773139	-0.68195250	-0.27682403	-0.32580176
4064	40.63000000	0.94606357	0.09399021	-0.09059911	-0.58376266	0.08573992	-0.72042711	-0.51668619	-0.62553865	-0.13075995	-0.68260131	-0.47196955	0.12279260	-0.65461992	0.44666495	0.15520354	-0.58257348	-0.14715096	0.25004205	-0.71012059	-0.15957750	-0.29383677	-0.66856436	-0.28469120	-0.33960384
